# xmcd
#
# Track frame offsets:
#	150
#	20540
#	40705
#	58742
#	72927
#	89415
#	111575
#	132340
#	153060
#	174242
#
# Disc length: 2545 seconds
#
# Revision: 1
# Processed by: cddbd v1.5.1PL0 Copyright (c) Steve Scherf et al.
# Submitted via: EasyCDDAExtractor 7.0.6.1
#
DISCID=8009ef0a
DTITLE=郭富城 - 浪漫鐵幕動感新誘惑
DYEAR=1994
DGENRE=Pop
TTITLE0=吻我吧 (月黑風高錫人夜)
TTITLE1=鐵幕誘惑 (鐵甲人登陸月球)
TTITLE2=渴望 (Bubble Gum Mix)
TTITLE3=狂野之城 (Pa Pa Ma Ma Cha Cha Remix)
TTITLE4=個個讚你乖 (中華料理Remix)
TTITLE5=你是我的1/2 (我的一半是你)
TTITLE6=改變的使命 (make the earth last - 香港環保主題歌)
TTITLE7=吻我吧 (SHOW WHITE REMIX)
TTITLE8=鐵幕誘惑 (無限時空兵團)
TTITLE9=改變的使命 - 綠色革命 (香港環保主題歌)
EXTD=
EXTT0=
EXTT1=
EXTT2=
EXTT3=
EXTT4=
EXTT5=
EXTT6=
EXTT7=
EXTT8=
EXTT9=
PLAYORDER=
